# xmcd CD database file
#
# Track frame offsets:
#	150
#	23790
#	44075
#	65063
#	91025
#	133480
#	158915
#	176212
#	211344
#	240054
#	268359
#	290049
#	315606
#	335572
#
# Disc length: 4794 seconds
#
# Revision: 0
# Processed by: cddbd v1.5.2PL0 Copyright (c) Steve Scherf et al.
# Submitted via: CDex 1.70beta2
#
DISCID=da12b80e
DTITLE=Miles Davis - Legenden des Jazz 
DYEAR=2013
DGENRE=Jazz
TTITLE0=Oleo
TTITLE1=Tadd's Delight
TTITLE2=New Rhumba
TTITLE3=Milestones
TTITLE4=So What
TTITLE5=Blue In Green
TTITLE6=Will O' The Wisp
TTITLE7=Seven Steps To Heaven (Live)
TTITLE8=Four (Live)
TTITLE9=Eighty-One
TTITLE10=Pee Wee
TTITLE11=Frelon Brun
TTITLE12=John McLaughlin
TTITLE13=Black Satin
EXTD=YEAR: 2013
EXTT0=
EXTT1=
EXTT2=
EXTT3=
EXTT4=
EXTT5=
EXTT6=
EXTT7=
EXTT8=
EXTT9=
EXTT10=
EXTT11=
EXTT12=
EXTT13=
PLAYORDER=
